<svg xmlns="http://www.w3.org/2000/svg" width="23.689" height="23.687" viewBox="0 0 23.689 23.687">
  <g id="Call_Solid" data-name="Call Solid" transform="translate(-9.689 -9.691)">
    <path id="Path_109" data-name="Path 109" d="M32.23,27.2l-3.439-2.4a2.652,2.652,0,0,0-3.7.657L24.3,26.6a29.575,29.575,0,0,1-4.255-3.574,29.538,29.538,0,0,1-3.573-4.254l1.144-.8a2.651,2.651,0,0,0,.657-3.7l-2.4-3.439A2.657,2.657,0,0,0,13.7,9.691a2.49,2.49,0,0,0-.864.154,4.762,4.762,0,0,0-.895.439l-.475.334a3.6,3.6,0,0,0-.335.3A4.77,4.77,0,0,0,9.906,13.1c-.99,3.711,1.463,9.323,6.1,13.963,3.9,3.9,8.578,6.317,12.217,6.318h0a6.778,6.778,0,0,0,1.746-.216,4.77,4.77,0,0,0,2.18-1.223,3.61,3.61,0,0,0,.314-.355l.335-.477a4.782,4.782,0,0,0,.424-.871A2.613,2.613,0,0,0,32.23,27.2Z" transform="translate(0)" fill="#fff"/>
  </g>
</svg>
