<svg xmlns="http://www.w3.org/2000/svg" width="16.796" height="16.205" viewBox="0 0 16.796 16.205">
  <g id="Contact_Us_Grey" data-name="Contact Us Grey" transform="translate(-0.5 -9)">
    <path id="Path_98" data-name="Path 98" d="M2.477,20.139H2.408A1.908,1.908,0,0,1,.5,18.23V16.748a1.908,1.908,0,0,1,1.908-1.908h.667v-.016a5.823,5.823,0,1,1,11.646,0v.016h.667A1.908,1.908,0,0,1,17.3,16.748V18.23a1.908,1.908,0,0,1-1.908,1.908h-.924a.333.333,0,0,1-.333-.333V14.823a5.232,5.232,0,1,0-10.465,0v4.983a.333.333,0,0,1-.333.333H3.067a3.405,3.405,0,0,0,3.4,3.377h.571a1.394,1.394,0,0,1,1.363-1.1H9.39a1.394,1.394,0,1,1,0,2.788H8.406a1.4,1.4,0,0,1-1.363-1.1H6.472a4,4,0,0,1-4-3.968Zm7.717,3.672a.8.8,0,0,0-.8-.8H8.406a.8.8,0,1,0,0,1.607H9.39A.8.8,0,0,0,10.194,23.811ZM3.075,15.43H2.408A1.318,1.318,0,0,0,1.09,16.748V18.23a1.318,1.318,0,0,0,1.318,1.318h.667Zm11.646,0v4.119h.667a1.318,1.318,0,0,0,1.318-1.318V16.748a1.318,1.318,0,0,0-1.318-1.318Z" fill="#4d4d4d" fill-rule="evenodd"/>
  </g>
</svg>
