<svg xmlns="http://www.w3.org/2000/svg" width="119.112" height="114.925" viewBox="0 0 119.112 114.925">
  <g id="Contact_Us_pink" data-name="Contact Us pink" transform="translate(-0.5 -9)">
    <path id="Path_108" data-name="Path 108" d="M14.517,87.994h-.483A13.534,13.534,0,0,1,.5,74.46V63.944A13.534,13.534,0,0,1,14.034,50.41h4.728v-.116a41.294,41.294,0,0,1,82.587,0v.116h4.728a13.534,13.534,0,0,1,13.534,13.534V74.46a13.534,13.534,0,0,1-13.534,13.534H99.522a2.36,2.36,0,0,1-2.36-2.36V50.294a37.106,37.106,0,0,0-74.212,0v35.34a2.359,2.359,0,0,1-2.359,2.36H18.705a24.148,24.148,0,0,0,24.147,23.95H46.9a9.887,9.887,0,0,1,9.663-7.793h6.979a9.887,9.887,0,1,1,0,19.774H56.566a9.891,9.891,0,0,1-9.665-7.793H42.852A28.335,28.335,0,0,1,14.517,87.994Zm54.728,26.044a5.7,5.7,0,0,0-5.7-5.7H56.566a5.7,5.7,0,0,0,0,11.4h6.979A5.7,5.7,0,0,0,69.245,114.037ZM18.762,54.6H14.034a9.346,9.346,0,0,0-9.346,9.346V74.46a9.346,9.346,0,0,0,9.346,9.346h4.728Zm82.587,0V83.806h4.728a9.346,9.346,0,0,0,9.346-9.346V63.944a9.346,9.346,0,0,0-9.346-9.346Z" transform="translate(0 0)" fill="#b83058" fill-rule="evenodd"/>
  </g>
</svg>
