<svg xmlns="http://www.w3.org/2000/svg" width="39.254" height="36.995" viewBox="0 0 39.254 36.995">
  <path id="Contact_Us" data-name="Contact Us" d="M23.587,49.268a2.457,2.457,0,0,0-2.457-2.457H18.123a2.457,2.457,0,0,0,0,4.913h3.008a2.457,2.457,0,0,0,2.457-2.457ZM5.164,42.933a10.639,10.639,0,0,0,1.405.02,6.973,6.973,0,0,0,6.842,5.624h.937a3.855,3.855,0,0,0,0,1.38h-.937a8.353,8.353,0,0,1-8.247-7.024Zm-.7-1.468A5.352,5.352,0,0,1,0,36.187V32.925a5.352,5.352,0,0,1,5.352-5.352h.356a13.963,13.963,0,0,1,27.837,0H33.9a5.352,5.352,0,0,1,5.352,5.352v3.262A5.352,5.352,0,0,1,33.9,41.539H32.322a1.186,1.186,0,0,1-1.186-1.186V28.691a11.509,11.509,0,0,0-23.018,0V40.353a1.186,1.186,0,0,1-.651,1.059,7.239,7.239,0,0,1-3,.053Z" transform="translate(0 -14.729)" fill="#3b64c8" fill-rule="evenodd"/>
</svg>
