<svg xmlns="http://www.w3.org/2000/svg" width="14.387" height="14.386" viewBox="0 0 14.387 14.386">
  <g id="Cross" transform="translate(0.006 0.003)">
    <path id="Path_77" data-name="Path 77" d="M.7,14.383a.7.7,0,0,1-.5-1.2L13.181.2a.7.7,0,1,1,.994.994L1.194,14.178a.7.7,0,0,1-.5.206Z" transform="translate(0 0)" fill="#8e8e8e"/>
    <path id="Path_78" data-name="Path 78" d="M13.681,14.383a.7.7,0,0,1-.5-.206L.2,1.2A.7.7,0,1,1,1.2.2L14.178,13.184a.7.7,0,0,1-.5,1.2Z" transform="translate(-0.003 0)" fill="#8e8e8e"/>
  </g>
</svg>
