<svg xmlns="http://www.w3.org/2000/svg" width="25.713" height="24.057" viewBox="0 0 25.713 24.057">
  <g id="District" transform="translate(-1 -2.994)">
    <path id="Path_58" data-name="Path 58" d="M26.3,24.562h-.415V23.318a.415.415,0,0,0-.415-.415h-.415V12.12h.415a.415.415,0,0,0,.415-.415V10.047a.415.415,0,0,0-.415-.415h-.415V7.558a.415.415,0,0,0-.415-.415H18.4a4.562,4.562,0,0,0-9.087,0H3.074a.415.415,0,0,0-.415.415V9.632H2.244a.415.415,0,0,0-.415.415v1.659a.415.415,0,0,0,.415.415h.415V22.9H2.244a.415.415,0,0,0-.415.415v1.244H1.415A.415.415,0,0,0,1,24.977v1.659a.415.415,0,0,0,.415.415H26.3a.415.415,0,0,0,.415-.415V24.977A.415.415,0,0,0,26.3,24.562ZM3.488,7.973H9.709a.415.415,0,0,0,.415-.415,3.733,3.733,0,0,1,7.465,0A.415.415,0,0,0,18,7.973h6.221V9.632H3.488Zm-.829,2.488h22.4v.829H2.659Zm.829,1.659H24.225V22.9H18.419V13.365A.415.415,0,0,0,18,12.95H9.709a.415.415,0,0,0-.415.415V22.9H3.488Zm10.783,4.189a2.252,2.252,0,0,1,1.617,1.212,2.216,2.216,0,0,0,1.7,1.214v2.509H14.271Zm3.318,1.583a1.389,1.389,0,0,1-.961-.742,3.1,3.1,0,0,0-5.544,0,1.389,1.389,0,0,1-.961.742V13.779h7.465Zm-7.465.844a2.216,2.216,0,0,0,1.7-1.213,2.252,2.252,0,0,1,1.615-1.213v4.935H10.124Zm0,3.338h7.465V22.9H10.124ZM2.659,23.733h22.4v.829H2.659Zm23.225,2.488H1.829v-.829H25.884Z" transform="translate(0 0)" fill="#8e8e8e"/>
    <path id="Path_59" data-name="Path 59" d="M45.415,35.295h3.318a.415.415,0,0,0,.415-.415V27.415A.415.415,0,0,0,48.733,27H45.415a.415.415,0,0,0-.415.415V34.88A.415.415,0,0,0,45.415,35.295Zm.415-7.465h2.488v6.636H45.829Z" transform="translate(-25.752 -14.05)" fill="#8e8e8e"/>
    <path id="Path_60" data-name="Path 60" d="M12.733,27H9.415A.415.415,0,0,0,9,27.415V34.88a.415.415,0,0,0,.415.415h3.318a.415.415,0,0,0,.415-.415V27.415A.415.415,0,0,0,12.733,27Zm-.415,7.465H9.829V27.829h2.488Z" transform="translate(-4.682 -14.05)" fill="#8e8e8e"/>
  </g>
</svg>
