<svg xmlns="http://www.w3.org/2000/svg" width="13.197" height="13.197" viewBox="0 0 13.197 13.197">
  <g id="edit" transform="translate(0 0)">
    <path id="Path_49" data-name="Path 49" d="M10.7,85.593a.387.387,0,0,0-.387.387V91.65a.645.645,0,0,1-.644.644H1.418a.645.645,0,0,1-.644-.644V83.4a.645.645,0,0,1,.644-.644H7.089a.387.387,0,0,0,0-.773H1.418A1.419,1.419,0,0,0,0,83.4V91.65a1.419,1.419,0,0,0,1.418,1.418H9.666a1.419,1.419,0,0,0,1.418-1.418V85.979A.387.387,0,0,0,10.7,85.593Z" transform="translate(0 -79.871)" fill="#8e8e8e"/>
    <path id="Path_50" data-name="Path 50" d="M187.472.993l-.729-.729a.9.9,0,0,0-1.276,0L179.635,6.1a.387.387,0,0,0-.106.2l-.365,1.823a.387.387,0,0,0,.455.455l1.823-.365a.387.387,0,0,0,.2-.106l5.833-5.833h0a.9.9,0,0,0,0-1.276Zm-6.3,6.479-1.139.228.228-1.139,4.747-4.747.911.911Zm5.75-5.75-.456.456-.911-.911.456-.456a.129.129,0,0,1,.182,0l.729.729A.129.129,0,0,1,186.925,1.722Z" transform="translate(-174.539 0)" fill="#8e8e8e"/>
  </g>
</svg>
