<svg xmlns="http://www.w3.org/2000/svg" width="22.589" height="15.652" viewBox="0 0 22.589 15.652">
  <g id="email" transform="translate(-9.353 -24.168)">
    <path id="Path_26" data-name="Path 26" d="M29.718,39.82H11.577A2.227,2.227,0,0,1,9.353,37.6v-11.2a2.227,2.227,0,0,1,2.224-2.224H29.718a2.227,2.227,0,0,1,2.224,2.224V37.6A2.227,2.227,0,0,1,29.718,39.82Zm-18.141-14.8A1.375,1.375,0,0,0,10.2,26.392V37.6a1.375,1.375,0,0,0,1.374,1.374H29.718A1.375,1.375,0,0,0,31.092,37.6v-11.2a1.375,1.375,0,0,0-1.374-1.374Z" fill="#8e8e8e"/>
    <path id="Path_27" data-name="Path 27" d="M23.5,36.5a.425.425,0,0,1-.281-.106L12.976,27.354l.563-.638L23.5,35.511l9.962-8.794.563.638L23.782,36.4a.424.424,0,0,1-.282.105Z" transform="translate(-2.853 -2.007)" fill="#8e8e8e"/>
    <path id="Path_28" data-name="Path 28" d="M0,0H10.426V.85H0Z" transform="translate(9.892 38.485) rotate(-48.728)" fill="#8e8e8e"/>
    <path id="Path_29" data-name="Path 29" d="M0,0H.85V10.426H0Z" transform="translate(23.904 31.198) rotate(-41.272)" fill="#8e8e8e"/>
  </g>
</svg>
