<svg id="FAQ_s" data-name="FAQ&apos;s" xmlns="http://www.w3.org/2000/svg" width="16.617" height="16.617" viewBox="0 0 16.617 16.617">
  <g id="Group_56" data-name="Group 56" transform="translate(7.976 11.632)">
    <g id="Group_55" data-name="Group 55">
      <path id="Path_112" data-name="Path 112" d="M246.092,358.4a.332.332,0,1,0,.332.332A.332.332,0,0,0,246.092,358.4Z" transform="translate(-245.76 -358.4)" fill="#4d4d4d"/>
    </g>
  </g>
  <g id="Group_58" data-name="Group 58" transform="translate(7.644 11.299)">
    <g id="Group_57" data-name="Group 57">
      <circle id="Ellipse_9" data-name="Ellipse 9" cx="0.665" cy="0.665" r="0.665" fill="#4d4d4d"/>
    </g>
  </g>
  <g id="Group_60" data-name="Group 60">
    <g id="Group_59" data-name="Group 59">
      <path id="Path_113" data-name="Path 113" d="M8.308,0a8.308,8.308,0,1,0,8.308,8.308A8.317,8.317,0,0,0,8.308,0Zm0,15.952a7.644,7.644,0,1,1,7.644-7.644A7.652,7.652,0,0,1,8.308,15.952Z" fill="#4d4d4d"/>
    </g>
  </g>
  <g id="Group_62" data-name="Group 62" transform="translate(5.982 3.988)">
    <g id="Group_61" data-name="Group 61">
      <path id="Path_114" data-name="Path 114" d="M188.936,124.8a2.326,2.326,0,0,0-4.615.419.332.332,0,0,0,.665,0,1.662,1.662,0,1,1,2.463,1.456,2.1,2.1,0,0,0-1.133,1.867v.665a.332.332,0,1,0,.663,0v-.723a1.422,1.422,0,0,1,.79-1.227A2.337,2.337,0,0,0,188.936,124.8Z" transform="translate(-184.321 -122.889)" fill="#4d4d4d"/>
    </g>
  </g>
</svg>
