<svg xmlns="http://www.w3.org/2000/svg" width="16.796" height="18.744" viewBox="0 0 16.796 18.744">
  <g id="feedback_Grey" data-name="feedback Grey" transform="translate(-89.5 -10.187)">
    <g id="Group_32" data-name="Group 32" transform="translate(89.5 15.463)">
      <g id="Group_31" data-name="Group 31" transform="translate(0 0)">
        <g id="Group_26" data-name="Group 26">
          <path id="Path_89" data-name="Path 89" d="M94.519,454.268a.258.258,0,0,1-.223-.129l-1.91-3.308H91.268a1.77,1.77,0,0,1-1.768-1.768v-6.5a1.77,1.77,0,0,1,1.768-1.768h6.4a.257.257,0,1,1,0,.515h-6.4a1.255,1.255,0,0,0-1.253,1.253v6.5a1.255,1.255,0,0,0,1.253,1.253h1.266a.258.258,0,0,1,.223.129L94.52,453.5l1.761-3.051a.258.258,0,0,1,.223-.129H102.3a1.255,1.255,0,0,0,1.253-1.253v-5.394a.257.257,0,1,1,.515,0v5.394a1.77,1.77,0,0,1-1.768,1.768H96.652l-1.91,3.308A.258.258,0,0,1,94.519,454.268Z" transform="translate(-89.5 -440.8)" fill="#4d4d4d"/>
        </g>
        <g id="Group_30" data-name="Group 30" transform="translate(2.368 3.774)">
          <g id="Group_27" data-name="Group 27" transform="translate(0 0.001)">
            <path id="Path_90" data-name="Path 90" d="M284.041,751.382a1.241,1.241,0,1,1,1.241-1.241A1.242,1.242,0,0,1,284.041,751.382Zm0-1.969a.727.727,0,1,0,.727.727A.727.727,0,0,0,284.041,749.413Z" transform="translate(-282.8 -748.9)" fill="#4d4d4d"/>
          </g>
          <g id="Group_28" data-name="Group 28" transform="translate(3.672)">
            <path id="Path_91" data-name="Path 91" d="M583.741,751.284a1.242,1.242,0,1,1,1.241-1.242A1.242,1.242,0,0,1,583.741,751.284Zm0-1.969a.727.727,0,1,0,.727.727A.727.727,0,0,0,583.741,749.315Z" transform="translate(-582.5 -748.8)" fill="#4d4d4d"/>
          </g>
          <g id="Group_29" data-name="Group 29" transform="translate(7.344 0.001)">
            <path id="Path_92" data-name="Path 92" d="M883.441,751.382a1.241,1.241,0,1,1,1.241-1.241A1.242,1.242,0,0,1,883.441,751.382Zm0-1.969a.727.727,0,1,0,.727.727A.727.727,0,0,0,883.441,749.413Z" transform="translate(-882.2 -748.9)" fill="#4d4d4d"/>
          </g>
        </g>
      </g>
    </g>
    <g id="Group_39" data-name="Group 39" transform="translate(97.412 10.187)">
      <g id="Group_38" data-name="Group 38" transform="translate(0 0)">
        <g id="Group_33" data-name="Group 33" transform="translate(6.534 4.403)">
          <path id="Path_93" data-name="Path 93" d="M1270.012,371.176h-1.255a.257.257,0,0,1,0-.515h1.255a.323.323,0,1,0,0-.647.257.257,0,0,1,0-.515.838.838,0,1,1,0,1.676Z" transform="translate(-1268.5 -369.5)" fill="#4d4d4d"/>
        </g>
        <g id="Group_34" data-name="Group 34" transform="translate(6.382 5.565)">
          <path id="Path_94" data-name="Path 94" d="M1257.624,466.076h-1.267a.257.257,0,1,1,0-.515h1.267a.323.323,0,0,0,0-.647.257.257,0,1,1,0-.515.838.838,0,0,1,0,1.676Z" transform="translate(-1256.1 -464.4)" fill="#4d4d4d"/>
        </g>
        <g id="Group_35" data-name="Group 35" transform="translate(2.018 6.728)">
          <path id="Path_95" data-name="Path 95" d="M902.982,560.977a6.7,6.7,0,0,1-.826-.055,4,4,0,0,1-.929-.195,2.015,2.015,0,0,1-.366-.185l-.048-.031a.981.981,0,0,0-.225-.119.441.441,0,0,0-.114,0h-.05l-.265,0h0a.257.257,0,0,1,0-.515l.265,0h.042a.809.809,0,0,1,.281.028,1.408,1.408,0,0,1,.347.176l.045.028a1.49,1.49,0,0,0,.274.14,3.529,3.529,0,0,0,.811.167,5.923,5.923,0,0,0,.891.049h2.4a.323.323,0,0,0,0-.647.257.257,0,1,1,0-.515.838.838,0,0,1,0,1.676h-2.524Z" transform="translate(-899.899 -559.3)" fill="#4d4d4d"/>
        </g>
        <g id="Group_36" data-name="Group 36" transform="translate(2.021)">
          <path id="Path_96" data-name="Path 96" d="M905.922,15.1h-.955a.257.257,0,1,1,0-.515h.955a.323.323,0,0,0,0-.647h-2.457a.257.257,0,0,1-.257-.257,1.489,1.489,0,0,1,.14-.638c.04-.087.083-.172.125-.254a3.713,3.713,0,0,0,.216-.478,1.794,1.794,0,0,0,0-1.393l-.011-.016a.523.523,0,0,0-.249-.191.271.271,0,0,0-.307.094.4.4,0,0,0-.029.23,2.741,2.741,0,0,1-.023.511,2.315,2.315,0,0,1-.3.867.246.246,0,0,1-.029.07c-.01.016-.076.121-.189.273h0s0,0,0,0a3.579,3.579,0,0,1-2.141,1.494.257.257,0,1,1-.066-.51,3.066,3.066,0,0,0,1.777-1.267l0-.009.034-.054c.032-.049.081-.126.148-.228a1.753,1.753,0,0,0,.254-.714,2.253,2.253,0,0,0,.018-.415.864.864,0,0,1,.113-.532.786.786,0,0,1,.89-.306,1.019,1.019,0,0,1,.511.376l.036.05s.006.011.01.016a2.228,2.228,0,0,1,.038,1.818,4.223,4.223,0,0,1-.244.542c-.042.082-.081.159-.118.239a1,1,0,0,0-.059.163h2.168a.838.838,0,1,1,0,1.676Z" transform="translate(-900.121 -10.187)" fill="#4d4d4d"/>
        </g>
        <g id="Group_37" data-name="Group 37" transform="translate(0 3.054)">
          <path id="Path_97" data-name="Path 97" d="M737.475,264.7h-2.018a.257.257,0,0,1-.257-.257v-4.787a.257.257,0,0,1,.257-.257h2.018a.257.257,0,0,1,.257.257v4.787A.257.257,0,0,1,737.475,264.7Zm-1.761-.515h1.5v-4.273h-1.5Z" transform="translate(-735.2 -259.4)" fill="#4d4d4d"/>
        </g>
      </g>
    </g>
  </g>
</svg>
