<svg xmlns="http://www.w3.org/2000/svg" width="18.501" height="18.963" viewBox="0 0 18.501 18.963">
  <path id="filter" d="M18.2,0H1.292A.794.794,0,0,0,.585.431a.805.805,0,0,0,.063.838L6.841,9.995,6.848,10a1.77,1.77,0,0,1,.347,1.05v7.114a.791.791,0,0,0,.791.8A.814.814,0,0,0,8.3,18.9l3.481-1.327a.754.754,0,0,0,.519-.744V11.054A1.77,1.77,0,0,1,12.645,10l.006-.009,6.194-8.726a.8.8,0,0,0,.063-.838A.794.794,0,0,0,18.2,0ZM11.869,9.433a2.74,2.74,0,0,0-.534,1.62v5.659L8.158,17.924v-6.87a2.739,2.739,0,0,0-.534-1.62L1.61.962H17.882Zm0,0" transform="translate(-0.496 0)" fill="#b83058"/>
</svg>
