<svg xmlns="http://www.w3.org/2000/svg" width="111.897" height="111.897" viewBox="0 0 111.897 111.897">
  <g id="Language_White" data-name="Language White" transform="translate(0 0)">
    <g id="XMLID_969_" transform="translate(0 0)">
      <path id="XMLID_1003_" d="M259.185,59.368a2.185,2.185,0,0,0,0,4.371h7.185a23.97,23.97,0,0,0,4.579,14.03,19.62,19.62,0,0,1-11.272,5.438,2.185,2.185,0,0,0,.269,4.354,2.21,2.21,0,0,0,.275-.017,23.976,23.976,0,0,0,13.606-6.477,23.976,23.976,0,0,0,13.606,6.477,2.209,2.209,0,0,0,.275.017,2.185,2.185,0,0,0,.269-4.354,19.618,19.618,0,0,1-11.272-5.438,23.972,23.972,0,0,0,4.579-14.03h7.185a2.185,2.185,0,0,0,0-4.371H276.014V53.685a2.186,2.186,0,0,0-4.371,0v5.682ZM273.828,74.23a19.594,19.594,0,0,1-3.086-10.491h6.172a19.592,19.592,0,0,1-3.086,10.491Z" transform="translate(-200.833 -40.245)" fill="#fff"/>
      <path id="XMLID_1023_" d="M100.306,0H82.83a2.185,2.185,0,1,0,0,4.371h17.476a7.229,7.229,0,0,1,7.22,7.221V46.98a7.229,7.229,0,0,1-7.221,7.22,2.186,2.186,0,0,0-2.185,2.185v9.247L85.342,54.724a2.185,2.185,0,0,0-1.419-.523H45.685a7.229,7.229,0,0,1-7.22-7.221V11.592a7.229,7.229,0,0,1,7.22-7.221H63.161a2.185,2.185,0,1,0,0-4.371H45.685A11.6,11.6,0,0,0,34.094,11.592V39.339h-22.5A11.6,11.6,0,0,0,0,50.93V86.319A11.612,11.612,0,0,0,9.406,97.7v12.008a2.186,2.186,0,0,0,3.6,1.662L28.78,97.91H66.212A11.6,11.6,0,0,0,77.8,86.318V58.571h5.313l15.77,13.464a2.186,2.186,0,0,0,3.6-1.662V58.365A11.612,11.612,0,0,0,111.9,46.98V11.592A11.6,11.6,0,0,0,100.306,0ZM38.937,61.086l4.33,11.473h-8.7Zm34.5,25.233a7.229,7.229,0,0,1-7.22,7.221H27.974a2.185,2.185,0,0,0-1.419.523l-12.778,10.91V95.725a2.186,2.186,0,0,0-2.185-2.185,7.229,7.229,0,0,1-7.22-7.221V50.93a7.229,7.229,0,0,1,7.22-7.221h22.5v3.27A11.541,11.541,0,0,0,36.964,54.6a2.758,2.758,0,0,0-.565.869c-.007.017-.014.033-.02.05L27.025,80.084a2.185,2.185,0,1,0,4.084,1.556L32.9,76.93H44.916l1.775,4.7a2.185,2.185,0,1,0,4.089-1.543L42.489,58.12a11.555,11.555,0,0,0,3.2.452H73.433Z" transform="translate(0 0)" fill="#fff"/>
      <path id="XMLID_1025_" d="M326.185,4.371a2.187,2.187,0,0,0,2.185-2.185,2.185,2.185,0,1,0-3.731,1.545A2.2,2.2,0,0,0,326.185,4.371Z" transform="translate(-253.19 0)" fill="#fff"/>
    </g>
  </g>
</svg>
