<svg xmlns="http://www.w3.org/2000/svg" width="17.773" height="24.057" viewBox="0 0 17.773 24.057">
  <g id="location" transform="translate(-48.08)">
    <g id="Group_18" data-name="Group 18" transform="translate(48.08)">
      <g id="Group_17" data-name="Group 17" transform="translate(0)">
        <path id="Path_47" data-name="Path 47" d="M56.967,0A8.9,8.9,0,0,0,48.08,8.887a10.253,10.253,0,0,0,.754,3.421,14.331,14.331,0,0,0,1.027,1.921l6.093,9.232a1.159,1.159,0,0,0,2.025,0l6.094-9.233A14.271,14.271,0,0,0,65.1,12.308a10.25,10.25,0,0,0,.753-3.421A8.9,8.9,0,0,0,56.967,0Zm7.169,11.9a13.132,13.132,0,0,1-.936,1.751l-6.094,9.233c-.12.182-.158.182-.279,0l-6.094-9.233A13.137,13.137,0,0,1,49.8,11.9a9.307,9.307,0,0,1-.672-3.015,7.841,7.841,0,0,1,15.682,0A9.314,9.314,0,0,1,64.136,11.9Z" transform="translate(-48.08)" fill="#8e8e8e"/>
        <path id="Path_48" data-name="Path 48" d="M116.785,64.008a4.7,4.7,0,1,0,4.7,4.7A4.71,4.71,0,0,0,116.785,64.008Zm0,8.364a3.659,3.659,0,1,1,3.659-3.659A3.664,3.664,0,0,1,116.785,72.372Z" transform="translate(-107.898 -59.826)" fill="#8e8e8e"/>
      </g>
    </g>
  </g>
</svg>
