<svg xmlns="http://www.w3.org/2000/svg" width="98.4" height="111.794" viewBox="0 0 98.4 111.794">
  <g id="Login" transform="translate(-40.18 -22)">
    <path id="Path_3" data-name="Path 3" d="M69.582,80.581A1.582,1.582,0,0,1,68,79V30.965A8.965,8.965,0,0,1,76.965,22h45.35a8.965,8.965,0,0,1,8.965,8.965v17.37a1.582,1.582,0,1,1-3.164,0V30.965a5.8,5.8,0,0,0-5.8-5.8H76.965a5.8,5.8,0,0,0-5.8,5.8V79A1.582,1.582,0,0,1,69.582,80.581Z" transform="translate(-13.15 0)" fill="#fff"/>
    <path id="Path_4" data-name="Path 4" d="M122.315,189.068H76.965A8.965,8.965,0,0,1,68,180.1V157.476a1.582,1.582,0,1,1,3.164,0V180.1a5.8,5.8,0,0,0,5.8,5.8h45.35a5.8,5.8,0,0,0,5.8-5.8V140.522a1.582,1.582,0,0,1,3.164,0V180.1A8.965,8.965,0,0,1,122.315,189.068Z" transform="translate(-13.15 -55.274)" fill="#fff"/>
    <path id="Path_5" data-name="Path 5" d="M122.71,30.548H103.937a5.437,5.437,0,0,1-5.426-5.384A1.582,1.582,0,0,1,98.553,22h29.531a1.582,1.582,0,0,1,.042,3.164A5.437,5.437,0,0,1,122.71,30.548Zm-21.035-5.384a2.268,2.268,0,0,0,2.262,2.22H122.71a2.268,2.268,0,0,0,2.262-2.22Z" transform="translate(-26.833 0)" fill="#fff"/>
    <path id="Path_6" data-name="Path 6" d="M127.6,216.9H107.972a1.582,1.582,0,1,1,0-3.164H127.6a1.582,1.582,0,0,1,0,3.164Z" transform="translate(-31.295 -90.63)" fill="#fff"/>
    <path id="Path_7" data-name="Path 7" d="M134.942,118.667a1.608,1.608,0,0,1-.6-.121,1.582,1.582,0,0,1-.981-1.461V108.9a10.183,10.183,0,0,1-8.58-10.019V79.1A10.177,10.177,0,0,1,134.942,68.94h33.464A10.172,10.172,0,0,1,178.568,79.1V98.855a10.172,10.172,0,0,1-10.162,10.162H145.251l-9.186,9.186A1.582,1.582,0,0,1,134.942,118.667Zm0-46.563a7.008,7.008,0,0,0-7,7V98.855a7.008,7.008,0,0,0,7,7,1.582,1.582,0,0,1,1.582,1.582v5.832l6.95-6.95a1.582,1.582,0,0,1,1.118-.464h23.814a7,7,0,0,0,7-7V79.1a7,7,0,0,0-7-7Z" transform="translate(-39.988 -22.187)" fill="#fff"/>
    <path id="Path_8" data-name="Path 8" d="M71,162.052a1.582,1.582,0,0,1-1.081-.432l-8.664-8.163H46.8a6.623,6.623,0,0,1-6.618-6.618V133.708A6.623,6.623,0,0,1,46.8,127.09H71a6.629,6.629,0,0,1,6.623,6.618v13.131a6.639,6.639,0,0,1-5.041,6.428v7.2a1.582,1.582,0,0,1-.954,1.45A1.524,1.524,0,0,1,71,162.052Zm-24.2-31.8a3.459,3.459,0,0,0-3.454,3.454v13.131a3.459,3.459,0,0,0,3.454,3.454H61.88a1.582,1.582,0,0,1,1.055.432l6.455,6.08v-4.931a1.582,1.582,0,0,1,1.582-1.582,3.459,3.459,0,0,0,3.459-3.454V133.708a3.459,3.459,0,0,0-3.459-3.454Z" transform="translate(0 -49.673)" fill="#fff"/>
    <path id="Path_9" data-name="Path 9" d="M177.35,89.674H152.2a1.582,1.582,0,1,1,0-3.164H177.35a1.582,1.582,0,1,1,0,3.164Z" transform="translate(-52.202 -30.492)" fill="#fff"/>
    <path id="Path_10" data-name="Path 10" d="M180.8,107.3H159.5a1.582,1.582,0,1,1,0-3.164h21.3a1.582,1.582,0,1,1,0,3.164Z" transform="translate(-55.652 -38.825)" fill="#fff"/>
    <path id="Path_11" data-name="Path 11" d="M177.35,124.934H152.2a1.582,1.582,0,1,1,0-3.164H177.35a1.582,1.582,0,1,1,0,3.164Z" transform="translate(-52.202 -47.158)" fill="#fff"/>
    <path id="Path_12" data-name="Path 12" d="M57.3,152.324H53.522a1.582,1.582,0,0,1,0-3.164H57.3a1.582,1.582,0,1,1,0,3.164Z" transform="translate(-5.559 -60.105)" fill="#fff"/>
    <path id="Path_13" data-name="Path 13" d="M74.288,152.324H70.512a1.582,1.582,0,1,1,0-3.164h3.776a1.582,1.582,0,1,1,0,3.164Z" transform="translate(-13.589 -60.105)" fill="#fff"/>
    <path id="Path_14" data-name="Path 14" d="M91.278,152.324H87.5a1.582,1.582,0,1,1,0-3.164h3.776a1.582,1.582,0,1,1,0,3.164Z" transform="translate(-21.62 -60.105)" fill="#fff"/>
  </g>
</svg>
