<svg xmlns="http://www.w3.org/2000/svg" width="16.718" height="18.036" viewBox="0 0 16.718 18.036">
  <g id="logout_pink" data-name="logout pink" transform="translate(-17.219)">
    <g id="Group_19" data-name="Group 19" transform="translate(17.219)">
      <path id="Path_51" data-name="Path 51" d="M25.272,17h-4.7a2.319,2.319,0,0,1-2.316-2.316V3.349a2.319,2.319,0,0,1,2.316-2.316h4.781a.517.517,0,1,0,0-1.033H20.568a3.353,3.353,0,0,0-3.349,3.349V14.687a3.353,3.353,0,0,0,3.349,3.349h4.7a.517.517,0,0,0,0-1.033Z" transform="translate(-17.219)" fill="#b83058"/>
      <path id="Path_52" data-name="Path 52" d="M133.131,139.761l-3.284-3.284a.517.517,0,0,0-.731.731l2.4,2.4H121.036a.517.517,0,1,0,0,1.033H131.52l-2.4,2.4a.519.519,0,0,0,.364.884.5.5,0,0,0,.364-.153l3.284-3.284A.516.516,0,0,0,133.131,139.761Z" transform="translate(-116.565 -131.107)" fill="#b83058"/>
    </g>
  </g>
</svg>
