<svg xmlns="http://www.w3.org/2000/svg" width="15.581" height="16.81" viewBox="0 0 15.581 16.81">
  <g id="logout_Grey" data-name="logout Grey" transform="translate(-17.219)">
    <g id="Group_19" data-name="Group 19" transform="translate(17.219)">
      <path id="Path_51" data-name="Path 51" d="M24.725,15.847H20.341a2.161,2.161,0,0,1-2.158-2.158V3.122A2.161,2.161,0,0,1,20.341.963H24.8A.482.482,0,1,0,24.8,0H20.341a3.125,3.125,0,0,0-3.122,3.122V13.688a3.125,3.125,0,0,0,3.122,3.122h4.384a.482.482,0,0,0,0-.963Z" transform="translate(-17.219)" fill="#4d4d4d"/>
      <path id="Path_52" data-name="Path 52" d="M132.274,139.528l-3.061-3.061a.482.482,0,1,0-.681.681l2.24,2.24H121a.482.482,0,1,0,0,.963h9.771l-2.24,2.24a.483.483,0,0,0,.339.824.47.47,0,0,0,.339-.143l3.061-3.061A.481.481,0,0,0,132.274,139.528Z" transform="translate(-116.834 -131.462)" fill="#4d4d4d"/>
    </g>
  </g>
</svg>
