<svg id="Notification" xmlns="http://www.w3.org/2000/svg" width="21.72" height="21.72" viewBox="0 0 21.72 21.72">
  <path id="Path_119" data-name="Path 119" d="M136.726,420.072a3.4,3.4,0,0,1-3.394-3.394.679.679,0,1,1,1.357,0,2.036,2.036,0,1,0,4.072,0,.679.679,0,1,1,1.357,0A3.4,3.4,0,0,1,136.726,420.072Zm0,0" transform="translate(-127.676 -398.353)" fill="#fff"/>
  <path id="Path_120" data-name="Path 120" d="M16.516,83.975H1.584a1.584,1.584,0,0,1-1.03-2.787.626.626,0,0,1,.072-.054,6.082,6.082,0,0,0,2.089-4.588V74.02a6.3,6.3,0,0,1,4.857-6.154.679.679,0,0,1,.313,1.321A4.941,4.941,0,0,0,4.072,74.02v2.525A7.443,7.443,0,0,1,1.445,82.22c-.014.011-.025.021-.04.031a.224.224,0,0,0-.048.14.229.229,0,0,0,.226.226H16.516a.229.229,0,0,0,.226-.226.216.216,0,0,0-.049-.14l-.039-.031a7.381,7.381,0,0,1-1.9-2.48.678.678,0,1,1,1.226-.58,6.049,6.049,0,0,0,1.5,1.977.782.782,0,0,1,.069.052,1.583,1.583,0,0,1-1.028,2.787Zm0,0" transform="translate(0 -64.97)" fill="#fff"/>
  <path id="Path_121" data-name="Path 121" d="M240.55,11.765a5.882,5.882,0,1,1,5.882-5.882A5.889,5.889,0,0,1,240.55,11.765Zm0-10.407a4.525,4.525,0,1,0,4.525,4.525A4.53,4.53,0,0,0,240.55,1.357Zm0,0" transform="translate(-224.713)" fill="#fff"/>
  <path id="Path_122" data-name="Path 122" d="M337.81,90.31a.679.679,0,0,1-.679-.679V86.69h-.453a.679.679,0,1,1,0-1.357h1.131a.679.679,0,0,1,.679.679v3.62A.679.679,0,0,1,337.81,90.31Zm0,0" transform="translate(-321.746 -81.712)" fill="#fff"/>
</svg>
