<svg xmlns="http://www.w3.org/2000/svg" width="104" height="94.162" viewBox="0 0 104 94.162">
  <g id="OTP" transform="translate(-5 -7.37)">
    <path id="Path_15" data-name="Path 15" d="M101.7,57.935H79.131V36.677a4.971,4.971,0,0,0-4.971-4.971H44.707V23.823a12.293,12.293,0,1,1,24.586,0,2.08,2.08,0,0,0,4.16,0,16.453,16.453,0,1,0-32.906,0v7.883H39.84a4.971,4.971,0,0,0-4.971,4.971V57.935H12.3a7.31,7.31,0,0,0-7.3,7.3v29a7.31,7.31,0,0,0,7.3,7.3h89.4a7.31,7.31,0,0,0,7.3-7.3v-29a7.31,7.31,0,0,0-7.3-7.3ZM39.029,36.677a.812.812,0,0,1,.811-.811H74.16a.812.812,0,0,1,.811.811V61.013a.812.812,0,0,1-.811.811H39.84a.812.812,0,0,1-.811-.811ZM104.84,94.231a3.151,3.151,0,0,1-3.141,3.141H12.3A3.151,3.151,0,0,1,9.16,94.231v-29A3.151,3.151,0,0,1,12.3,62.095H34.994a4.972,4.972,0,0,0,4.846,3.89H74.16a4.972,4.972,0,0,0,4.846-3.89H101.7a3.151,3.151,0,0,1,3.141,3.141Z" transform="translate(0)" fill="#fff"/>
    <path id="Path_16" data-name="Path 16" d="M28.866,44.7H24.6l2.122-3.682a2.087,2.087,0,0,0-3.619-2.08l-2.122,3.682-2.122-3.682a2.087,2.087,0,1,0-3.619,2.08L17.364,44.7H13.1a2.08,2.08,0,1,0,0,4.16h4.264l-2.122,3.682a2.087,2.087,0,0,0,3.619,2.08l2.122-3.682L23.1,54.619a2.087,2.087,0,0,0,3.619-2.08L24.6,48.857h4.264a2.08,2.08,0,0,0,0-4.16Z" transform="translate(6.502 32.956)" fill="#fff"/>
    <path id="Path_17" data-name="Path 17" d="M43.036,44.7H38.772l2.122-3.682a2.087,2.087,0,1,0-3.619-2.08l-2.1,3.682-2.122-3.682a2.087,2.087,0,0,0-3.619,2.08L31.554,44.7H27.29a2.08,2.08,0,1,0,0,4.16h4.264l-2.122,3.682a2.087,2.087,0,0,0,3.619,2.08l2.122-3.682,2.122,3.682a2.087,2.087,0,0,0,3.619-2.08l-2.122-3.682h4.264a2.08,2.08,0,1,0-.021-4.16Z" transform="translate(21.827 32.956)" fill="#fff"/>
    <path id="Path_18" data-name="Path 18" d="M57.2,44.7H52.941l2.122-3.682a2.087,2.087,0,1,0-3.619-2.08l-2.122,3.682L47.2,38.936a2.087,2.087,0,1,0-3.619,2.08L45.7,44.7H41.48a2.08,2.08,0,1,0,0,4.16h4.264l-2.122,3.682a2.087,2.087,0,0,0,3.619,2.08l2.122-3.682,2.122,3.682a2.087,2.087,0,0,0,3.619-2.08l-2.122-3.682h4.264a2.086,2.086,0,0,0,2.08-2.08A2.122,2.122,0,0,0,57.2,44.7Z" transform="translate(37.152 32.956)" fill="#fff"/>
  </g>
</svg>
