<svg xmlns="http://www.w3.org/2000/svg" width="20.921" height="21" viewBox="0 0 20.921 21">
  <g id="Phone" transform="translate(-0.912)">
    <path id="Path_2" data-name="Path 2" d="M5.151,13.959a22.279,22.279,0,0,0,7.41,5.8,11.534,11.534,0,0,0,4.147,1.227c.1,0,.2.009.3.009a3.434,3.434,0,0,0,2.663-1.144.1.1,0,0,0,.017-.022,11.211,11.211,0,0,1,.84-.87c.2-.2.413-.4.614-.609a2.1,2.1,0,0,0-.009-3.129L18.514,12.61a2.117,2.117,0,0,0-1.532-.7,2.188,2.188,0,0,0-1.549.7l-1.558,1.558c-.144-.083-.292-.157-.431-.226a5.381,5.381,0,0,1-.479-.261,16.487,16.487,0,0,1-3.938-3.586A9.494,9.494,0,0,1,7.7,7.967c.409-.37.792-.757,1.162-1.136.131-.135.265-.27.4-.4a2.231,2.231,0,0,0,.722-1.567,2.213,2.213,0,0,0-.722-1.567L7.962,2c-.152-.152-.3-.3-.444-.453-.287-.3-.587-.6-.883-.875A2.169,2.169,0,0,0,5.1,0,2.233,2.233,0,0,0,3.554.674L1.927,2.3a3.344,3.344,0,0,0-1,2.141,8.053,8.053,0,0,0,.6,3.481A20.252,20.252,0,0,0,5.151,13.959ZM1.992,4.534a2.3,2.3,0,0,1,.692-1.479L4.3,1.436a1.172,1.172,0,0,1,.8-.37,1.112,1.112,0,0,1,.783.379c.292.27.566.553.862.853.148.152.3.3.453.461l1.3,1.3a1.182,1.182,0,0,1,.409.814,1.182,1.182,0,0,1-.409.814c-.135.135-.27.274-.4.409-.4.409-.783.8-1.2,1.166L6.87,7.28a.851.851,0,0,0-.218.966c0,.013.009.022.013.035a10.241,10.241,0,0,0,1.527,2.485,17.4,17.4,0,0,0,4.195,3.821,6.228,6.228,0,0,0,.574.313,5.381,5.381,0,0,1,.479.261l.048.026a.91.91,0,0,0,.422.109.923.923,0,0,0,.648-.3l1.627-1.627a1.152,1.152,0,0,1,.8-.387,1.093,1.093,0,0,1,.77.387l2.624,2.62a1.049,1.049,0,0,1-.013,1.64c-.183.2-.374.383-.579.579a12.531,12.531,0,0,0-.909.944,2.389,2.389,0,0,1-1.867.792c-.074,0-.152,0-.226-.009a10.478,10.478,0,0,1-3.751-1.123,21.165,21.165,0,0,1-7.054-5.526A19.385,19.385,0,0,1,2.54,7.567,7.018,7.018,0,0,1,1.992,4.534Z" fill="#8e8e8e"/>
  </g>
</svg>
