<svg id="Post_Grievance_Grey" data-name="Post Grievance Grey" xmlns="http://www.w3.org/2000/svg" width="17.999" height="18" viewBox="0 0 17.999 18">
  <path id="Path_79" data-name="Path 79" d="M11.769,20.849A.375.375,0,0,1,11.4,20.4l.53-2.651a.368.368,0,0,1,.1-.192l5.833-5.833a1.127,1.127,0,0,1,1.591,0l1.06,1.06a1.126,1.126,0,0,1,0,1.591l-5.833,5.833a.373.373,0,0,1-.192.1l-2.651.53A.4.4,0,0,1,11.769,20.849Zm.876-2.842L12.247,20l1.988-.4,5.753-5.753a.375.375,0,0,0,0-.53l-1.06-1.061a.375.375,0,0,0-.53,0Zm1.775,1.937h.007Z" transform="translate(-2.848 -2.849)" fill="#4d4d4d"/>
  <path id="Path_80" data-name="Path 80" d="M7.125,16.5H1.875A1.877,1.877,0,0,1,0,14.625V4.875A1.877,1.877,0,0,1,1.875,3h1.5a.375.375,0,0,1,0,.75h-1.5A1.126,1.126,0,0,0,.75,4.875v9.75A1.126,1.126,0,0,0,1.875,15.75h5.25a.375.375,0,0,1,0,.75Z" transform="translate(0 -0.75)" fill="#4d4d4d"/>
  <path id="Path_81" data-name="Path 81" d="M15.375,9.75A.375.375,0,0,1,15,9.375v-4.5A1.126,1.126,0,0,0,13.875,3.75h-1.5a.375.375,0,0,1,0-.75h1.5A1.877,1.877,0,0,1,15.75,4.875v4.5A.375.375,0,0,1,15.375,9.75Z" transform="translate(-3 -0.75)" fill="#4d4d4d"/>
  <path id="Path_82" data-name="Path 82" d="M9.625,4.5h-4.5A1.126,1.126,0,0,1,4,3.375v-1.5A.375.375,0,0,1,4.375,1.5H5.538a1.875,1.875,0,0,1,3.675,0h1.163a.375.375,0,0,1,.375.375v1.5A1.126,1.126,0,0,1,9.625,4.5ZM4.75,2.25V3.375a.376.376,0,0,0,.375.375h4.5A.376.376,0,0,0,10,3.375V2.25H8.875A.375.375,0,0,1,8.5,1.875a1.125,1.125,0,0,0-2.25,0,.375.375,0,0,1-.375.375Z" transform="translate(-1)" fill="#4d4d4d"/>
  <path id="Path_83" data-name="Path 83" d="M10.875,8.75h-7.5a.375.375,0,0,1,0-.75h7.5a.375.375,0,0,1,0,.75Z" transform="translate(-0.75 -2)" fill="#4d4d4d"/>
  <path id="Path_84" data-name="Path 84" d="M10.875,11.75h-7.5a.375.375,0,0,1,0-.75h7.5a.375.375,0,0,1,0,.75Z" transform="translate(-0.75 -2.75)" fill="#4d4d4d"/>
  <path id="Path_85" data-name="Path 85" d="M10.875,14.75h-7.5a.375.375,0,0,1,0-.75h7.5a.375.375,0,0,1,0,.75Z" transform="translate(-0.75 -3.5)" fill="#4d4d4d"/>
</svg>
