<svg id="Post_Grievance" data-name="Post Grievance" xmlns="http://www.w3.org/2000/svg" width="35" height="35.001" viewBox="0 0 35 35.001">
  <path id="Path_61" data-name="Path 61" d="M16.032,2.917h-1.6a4.019,4.019,0,0,0-7.729,0h-1.6A1.1,1.1,0,0,0,4,4.011V6.2A2.564,2.564,0,0,0,6.552,8.75h8.021A2.564,2.564,0,0,0,17.125,6.2V4.011A1.1,1.1,0,0,0,16.032,2.917Z" transform="translate(1.834)" fill="#f8a920"/>
  <path id="Path_62" data-name="Path 62" d="M20.782,3h-.365V4.823a4.008,4.008,0,0,1-4.011,4.011H8.386A4.008,4.008,0,0,1,4.375,4.823V3H4.011A4.008,4.008,0,0,0,0,7.011V25.24a4.008,4.008,0,0,0,4.011,4.011H14.773l.321-1.794A4.061,4.061,0,0,1,16.2,25.313l1.167-1.167H5.469a1.094,1.094,0,1,1,0-2.188H19.324a.5.5,0,0,1,.2.029h.015l5.25-5.25V7.011A4.008,4.008,0,0,0,20.782,3ZM19.324,19.407H5.469a1.094,1.094,0,0,1,0-2.188H19.324a1.094,1.094,0,0,1,0,2.188Zm0-4.74H5.469a1.094,1.094,0,1,1,0-2.188H19.324a1.094,1.094,0,1,1,0,2.188Z" transform="translate(0 1.375)" fill="#f8a920"/>
  <path id="Path_63" data-name="Path 63" d="M12.871,29.65a1.094,1.094,0,0,1-1.076-1.285l.773-4.382a1.1,1.1,0,0,1,.3-.583L23.7,12.572c1.33-1.333,2.637-.973,3.351-.258l1.8,1.8a2.553,2.553,0,0,1,0,3.609L18.026,28.556a1.078,1.078,0,0,1-.583.3l-4.382.773a1.042,1.042,0,0,1-.19.017Zm4.382-1.867h.015Z" transform="translate(5.399 5.351)" fill="#f8a920"/>
</svg>
