<svg xmlns="http://www.w3.org/2000/svg" width="20.756" height="20.756" viewBox="0 0 20.756 20.756">
  <path id="Profile" d="M17.716,3.04A10.378,10.378,0,0,0,3.039,17.717,10.378,10.378,0,0,0,17.716,3.04ZM4.5,17.4a5.938,5.938,0,0,1,5.874-5.225A5.915,5.915,0,0,1,16.252,17.4,9.143,9.143,0,0,1,4.5,17.4Zm5.874-6.478A3.152,3.152,0,1,1,13.53,7.774,3.156,3.156,0,0,1,10.378,10.926Zm6.921,5.45a7.149,7.149,0,0,0-4.475-4.984,4.368,4.368,0,1,0-4.89,0,7.143,7.143,0,0,0-4.478,4.982,9.162,9.162,0,1,1,13.843,0Zm0,0" transform="translate(0.001)" fill="#fff"/>
</svg>
