<svg xmlns="http://www.w3.org/2000/svg" xmlns:xlink="http://www.w3.org/1999/xlink" width="73" height="73" viewBox="0 0 73 73">
  <defs>
    <clipPath id="clip-path">
      <circle id="Ellipse_3" data-name="Ellipse 3" cx="36.5" cy="36.5" r="36.5" transform="translate(155.478 72.478)" fill="#fff"/>
    </clipPath>
  </defs>
  <g id="Profile_Colorful" data-name="Profile Colorful" transform="translate(-155.478 -72.478)" clip-path="url(#clip-path)">
    <g id="profile_3_" data-name="profile (3)" transform="translate(155.991 72.991)">
      <g id="Group_16" data-name="Group 16">
        <g id="Group_2" data-name="Group 2" transform="translate(0 0.021)">
          <path id="Path_30" data-name="Path 30" d="M36.181,68.312l14.334-3.62A37.042,37.042,0,0,0,34.936.029,36.176,36.176,0,0,0,10.714,61.882Z" transform="translate(0 -0.029)" fill="#cbe2ff"/>
        </g>
        <g id="Group_3" data-name="Group 3" transform="translate(31.578)">
          <path id="Path_31" data-name="Path 31" d="M75.659,36.177A36.121,36.121,0,0,1,61.136,65.159l13.006-3.284A36.176,36.176,0,0,0,48.679,0a36.53,36.53,0,0,0-4.6.29A36.184,36.184,0,0,1,75.659,36.177Z" transform="translate(-44.08 0)" fill="#bed8fb"/>
        </g>
        <g id="Group_15" data-name="Group 15" transform="translate(9.897 10.355)">
          <g id="Group_14" data-name="Group 14">
            <g id="Group_13" data-name="Group 13">
              <path id="Path_32" data-name="Path 32" d="M54.113,17.8a3.346,3.346,0,0,0-3.346-3.346H39.239a7.7,7.7,0,0,0-7.7,7.7V30.7H58.7V22.276a3.346,3.346,0,0,0-3.346-3.346h-.113a1.13,1.13,0,0,1-1.13-1.13Z" transform="translate(-18.842 -14.455)" fill="#365e7d"/>
              <path id="Path_33" data-name="Path 33" d="M62.468,18.931h-.113a1.13,1.13,0,0,1-1.13-1.13,3.346,3.346,0,0,0-3.346-3.346H56.616V30.7h9.2V22.276A3.345,3.345,0,0,0,62.468,18.931Z" transform="translate(-25.954 -14.455)" fill="#2b4d66"/>
              <path id="Path_34" data-name="Path 34" d="M63.984,71.3a8.021,8.021,0,0,0-3.221-1.942l-9.877-3.127L40.1,65.847,29.3,66.226l-9.877,3.127a8.038,8.038,0,0,0-5.612,7.664v2.7A36.073,36.073,0,0,0,38.854,91.009,37.107,37.107,0,0,0,63.984,71.3Z" transform="translate(-13.815 -29.031)" fill="#4a80aa"/>
              <path id="Path_35" data-name="Path 35" d="M74.963,81.663v-2.7a8.037,8.037,0,0,0-2.983-6.248A36.208,36.208,0,0,1,44.092,92.688a36.508,36.508,0,0,0,4.526.291,38.68,38.68,0,0,0,4.356-.252A36.084,36.084,0,0,0,74.963,81.663Z" transform="translate(-22.402 -30.979)" fill="#407093"/>
              <path id="Path_36" data-name="Path 36" d="M48.4,89.5c2.189-4.346,7.889-16.685,6.263-24.393l-7.08-2.756L40.5,65.1c-1.675,7.946,4.433,20.813,6.456,24.772Q47.682,89.7,48.4,89.5Z" transform="translate(-21.301 -28.038)" fill="#e4f6ff"/>
              <path id="Path_37" data-name="Path 37" d="M53.251,90.964,50.381,79.67H47.022L44.158,90.933,47.7,94.875q1.348-.309,2.658-.715Z" transform="translate(-22.421 -32.951)" fill="#e28086"/>
              <path id="Path_38" data-name="Path 38" d="M48.9,100.182c.293.008.587.013.882.013.341,0,.681-.006,1.021-.016l1.824-2.015A35.9,35.9,0,0,1,48.2,99.406Z" transform="translate(-23.568 -38.197)" fill="#dd636e"/>
              <g id="Group_11" data-name="Group 11" transform="translate(12.697 9.065)">
                <g id="Group_10" data-name="Group 10" transform="translate(7.534 20.589)">
                  <g id="Group_9" data-name="Group 9">
                    <g id="Group_8" data-name="Group 8">
                      <g id="Group_7" data-name="Group 7">
                        <g id="Group_6" data-name="Group 6">
                          <g id="Group_5" data-name="Group 5">
                            <g id="Group_4" data-name="Group 4">
                              <path id="Path_39" data-name="Path 39" d="M54.15,62.218V55.849H42.056v6.369c0,3.34,6.047,6.988,6.047,6.988s6.047-3.648,6.047-6.988Z" transform="translate(-42.056 -55.849)" fill="#ffddce"/>
                            </g>
                          </g>
                        </g>
                      </g>
                    </g>
                  </g>
                </g>
                <path id="Path_40" data-name="Path 40" d="M58.7,33.171H56.39a2.328,2.328,0,0,1-2.328-2.328V29.569a2.457,2.457,0,0,0-3.229-2.333,18.2,18.2,0,0,1-11.422,0h0a2.458,2.458,0,0,0-3.228,2.333v1.275a2.328,2.328,0,0,1-2.328,2.328H31.539v3.807A1.761,1.761,0,0,0,33.3,38.739a.579.579,0,0,1,.576.547,11.267,11.267,0,0,0,22.488,0,.579.579,0,0,1,.576-.547A1.761,1.761,0,0,0,58.7,36.978V33.171Z" transform="translate(-31.539 -27.109)" fill="#ffddce"/>
                <path id="Path_41" data-name="Path 41" d="M61.279,33.171a2.328,2.328,0,0,1-2.328-2.328V29.569a2.457,2.457,0,0,0-3.229-2.333q-.659.218-1.329.383V40.192a11.264,11.264,0,0,1-5.614,9.575A11.255,11.255,0,0,0,61.254,39.286a.579.579,0,0,1,.576-.547,1.761,1.761,0,0,0,1.761-1.761V33.171H61.279Z" transform="translate(-36.429 -27.109)" fill="#ffcbbe"/>
              </g>
              <g id="Group_12" data-name="Group 12" transform="translate(15.489 34.31)">
                <path id="Path_42" data-name="Path 42" d="M40.178,62.348,35.436,66.2l4.973,6.149a1.647,1.647,0,0,0,2.205.084l3.74-3.124Z" transform="translate(-35.436 -62.348)" fill="#f4fbff"/>
                <path id="Path_43" data-name="Path 43" d="M56.6,62.348l-5.92,6.962,3.515,3.006a1.648,1.648,0,0,0,2.212-.064L61.342,66.2Z" transform="translate(-39.759 -62.348)" fill="#f4fbff"/>
              </g>
            </g>
            <path id="Path_44" data-name="Path 44" d="M38.983,62.348l-6.961,3.42a1.054,1.054,0,0,0-.472,1.43l1.364,2.644a1.77,1.77,0,0,1-.322,2.065l-.848.847a1.766,1.766,0,0,0-.433,1.8c1.646,5.019,9.571,12.694,12.57,15.471q.3.008.606.011c-2.175-4.23-9.881-20.3-5.5-27.687Z" transform="translate(-18.752 -28.038)" fill="#365e7d"/>
            <path id="Path_45" data-name="Path 45" d="M63.155,71.906a1.77,1.77,0,0,1-.322-2.065L64.2,67.2a1.054,1.054,0,0,0-.472-1.43l-6.961-3.42c4.378,7.385-3.323,23.449-5.5,27.684q.307-.005.613-.015c3.005-2.783,10.916-10.449,12.561-15.464a1.766,1.766,0,0,0-.433-1.8Z" transform="translate(-24.436 -28.038)" fill="#365e7d"/>
            <path id="Path_46" data-name="Path 46" d="M49.219,72.066l-3.683,3.076,1.876,2.371h3.359L52.648,75Z" transform="translate(-22.812 -30.795)" fill="#dd636e"/>
          </g>
        </g>
      </g>
    </g>
  </g>
</svg>
