<svg id="settings" xmlns="http://www.w3.org/2000/svg" width="16.831" height="16.831" viewBox="0 0 16.831 16.831">
  <g id="Group_40" data-name="Group 40" transform="translate(0 0)">
    <path id="Path_99" data-name="Path 99" d="M9.2,16.831H7.63a1.05,1.05,0,0,1-1.042-.926L6.42,14.59a6.627,6.627,0,0,1-.964-.4L4.409,15a1.046,1.046,0,0,1-1.392-.088l-1.1-1.1a1.043,1.043,0,0,1-.086-1.388l.814-1.048a6.475,6.475,0,0,1-.4-.964L.924,10.245A1.053,1.053,0,0,1,0,9.2V7.63A1.05,1.05,0,0,1,.926,6.588L2.241,6.42a6.627,6.627,0,0,1,.4-.964L1.827,4.409a1.046,1.046,0,0,1,.089-1.393l1.1-1.1a1.044,1.044,0,0,1,1.388-.086l1.048.815a6.6,6.6,0,0,1,.964-.4L6.588.924A1.05,1.05,0,0,1,7.63,0H9.2a1.05,1.05,0,0,1,1.042.926l.168,1.316a6.6,6.6,0,0,1,.964.4l1.048-.814a1.045,1.045,0,0,1,1.392.089l1.1,1.1A1.043,1.043,0,0,1,15,4.408l-.814,1.048a6.475,6.475,0,0,1,.4.964l1.318.168a1.051,1.051,0,0,1,.923,1.043V9.2a1.05,1.05,0,0,1-.926,1.042l-1.316.168a6.627,6.627,0,0,1-.4.964L15,12.422a1.045,1.045,0,0,1-.089,1.392l-1.1,1.1A1.043,1.043,0,0,1,12.423,15l-1.048-.814a6.475,6.475,0,0,1-.964.4l-.168,1.318A1.051,1.051,0,0,1,9.2,16.831Zm-3.78-3.408a.356.356,0,0,1,.171.044,5.886,5.886,0,0,0,1.244.516.35.35,0,0,1,.251.292l.2,1.543a.354.354,0,0,0,.346.311H9.2a.353.353,0,0,0,.346-.308l.2-1.546a.35.35,0,0,1,.251-.292,5.886,5.886,0,0,0,1.244-.516.35.35,0,0,1,.386.029l1.227.954a.345.345,0,0,0,.459-.024l1.112-1.112a.347.347,0,0,0,.027-.463L13.5,11.625a.35.35,0,0,1-.029-.386A5.886,5.886,0,0,0,13.983,10a.35.35,0,0,1,.292-.251l1.543-.2A.356.356,0,0,0,16.13,9.2V7.63a.353.353,0,0,0-.308-.346l-1.546-.2a.35.35,0,0,1-.292-.251,5.886,5.886,0,0,0-.516-1.244.349.349,0,0,1,.029-.386l.954-1.227a.344.344,0,0,0-.023-.459L13.316,2.409a.345.345,0,0,0-.463-.027l-1.227.954a.351.351,0,0,1-.386.029A5.862,5.862,0,0,0,10,2.849a.35.35,0,0,1-.251-.292l-.2-1.543A.356.356,0,0,0,9.2.7H7.63a.353.353,0,0,0-.346.308l-.2,1.546a.352.352,0,0,1-.251.293,5.86,5.86,0,0,0-1.244.515.351.351,0,0,1-.386-.029L3.978,2.381A.344.344,0,0,0,3.52,2.4L2.408,3.516a.347.347,0,0,0-.027.463l.954,1.227a.35.35,0,0,1,.029.386,5.85,5.85,0,0,0-.516,1.244.35.35,0,0,1-.292.251l-1.543.2A.354.354,0,0,0,.7,7.63V9.2a.353.353,0,0,0,.308.346l1.546.2a.35.35,0,0,1,.292.251,5.886,5.886,0,0,0,.516,1.244.349.349,0,0,1-.029.386L2.38,12.852a.344.344,0,0,0,.023.459l1.112,1.112a.347.347,0,0,0,.463.027L5.205,13.5a.361.361,0,0,1,.216-.073Z" transform="translate(0 0)" fill="#4d4d4d"/>
  </g>
  <g id="Group_41" data-name="Group 41" transform="translate(4.909 4.909)">
    <path id="Path_100" data-name="Path 100" d="M10.506,14.013a3.506,3.506,0,1,1,3.506-3.506A3.51,3.51,0,0,1,10.506,14.013Zm0-6.312a2.805,2.805,0,1,0,2.805,2.805A2.808,2.808,0,0,0,10.506,7.7Z" transform="translate(-7 -7)" fill="#4d4d4d"/>
  </g>
</svg>
