<svg xmlns="http://www.w3.org/2000/svg" width="17.999" height="17.999" viewBox="0 0 17.999 17.999">
  <g id="Track_Grievance_Grey" data-name="Track Grievance Grey" transform="translate(-1.928 -1.928)">
    <path id="Path_86" data-name="Path 86" d="M11.643,6a5.643,5.643,0,1,0,5.643,5.643A5.643,5.643,0,0,0,11.643,6Zm0,10.693a5.049,5.049,0,1,1,5.049-5.049A5.049,5.049,0,0,1,11.643,16.693Z" transform="translate(-2.863 -2.863)" fill="#4d4d4d"/>
    <path id="Path_87" data-name="Path 87" d="M19.94,15H14.594a.594.594,0,0,0-.594.594v4.752a.594.594,0,0,0,.594.594H19.94a.594.594,0,0,0,.594-.594V15.594A.594.594,0,0,0,19.94,15Zm0,1.188H18.158v-.594H19.94Zm-2.376-.594v1.782H16.97V15.594Zm-1.188,0v.594H14.594v-.594Zm-1.782,4.752V16.782h1.782v.891a.3.3,0,0,0,.3.3h1.188a.3.3,0,0,0,.3-.3v-.891H19.94v3.564Z" transform="translate(-8.487 -9.189)" fill="#4d4d4d"/>
    <rect id="Rectangle_1577" data-name="Rectangle 1577" width="1.188" height="0.594" transform="translate(9.672 9.969)" fill="#4d4d4d"/>
    <rect id="Rectangle_1578" data-name="Rectangle 1578" width="0.594" height="0.594" transform="translate(8.484 9.969)" fill="#4d4d4d"/>
    <path id="Path_88" data-name="Path 88" d="M19.492,17.392l-3.78-3.78a.306.306,0,0,0-.42,0l-.21.21-.885-.885A6.842,6.842,0,1,0,12.937,14.2l.885.885-.21.21a.3.3,0,0,0,0,.42l3.78,3.78a1.485,1.485,0,1,0,2.1-2.1ZM2.543,8.781a6.237,6.237,0,1,1,6.237,6.237A6.237,6.237,0,0,1,2.543,8.781Zm11.271,4.613.847.846-.422.422-.846-.846Q13.613,13.613,13.814,13.394Zm5.257,5.678a.893.893,0,0,1-1.26,0l-3.57-3.57,1.26-1.26,3.57,3.57a.891.891,0,0,1,0,1.26Z" transform="translate(0 0)" fill="#4d4d4d"/>
  </g>
</svg>
